# xmcd CD database file
#
# Track frame offsets:
#	150
#	13185
#	27633
#	38643
#	51698
#	67203
#	84115
#	96900
#	114603
#	127085
#	136925
#
# Disc length: 2027 seconds
#
# Revision: 4
# Processed by: cddbd v1.4PL0 Copyright (c) Steve Scherf et al.
# Submitted via: CDex 1.50
#
DISCID=a007e90b
DTITLE=Kinky Friedman - Kinky Friedman
DYEAR=1974
DGENRE=Country
TTITLE0=Rapid City, South Dakota
TTITLE1=Popeye the Sailor Man
TTITLE2=Homo Erectus
TTITLE3=Lover Please
TTITLE4=Wild Man From Borneo
TTITLE5=Before All Hell Breaks Loose
TTITLE6=Somethin's Wrong With the Beaver
TTITLE7=When the Lord Closes the Door (He Opens a Little Window)
TTITLE8=Miss Nickelodeon
TTITLE9=Autograph
TTITLE10=They Ain't makin' Jews Like Jesus Anymore
EXTD=YEAR: 1974
EXTT0=
EXTT1=
EXTT2=
EXTT3=
EXTT4=
EXTT5=
EXTT6=
EXTT7=
EXTT8=
EXTT9=
EXTT10=
PLAYORDER=
